# xmcd
#
# Track frame offsets: 
#        150
#        23919
#        48305
#        76032
#        109094
#        127389
#        144686
#        179040
#        193786
#        217575
#        251636
#        264149
#        285322
#        299761
#        315998
#        334144
#
# Disc length: 4703 seconds
#
# Revision: 1
# Processed by: cddbd v1.5.2PL0 Copyright (c) Steve Scherf et al.
# Submitted via: ExactAudioCopy v1.3
#
DISCID=ef125d10
DTITLE=Various Artist - Verve And Blue Note Today 2016
DYEAR=2016
DGENRE=Jazz
TTITLE0=GoGo Penguin - All Res
TTITLE1=Natacha Atlas - Heaven's Breath
TTITLE2=Marcus Strickland's Twi-Life - Mirrors
TTITLE3=Dr. Lonnie Smith - Talk About This
TTITLE4=Charlie Hunter - Leave Him Lay
TTITLE5=Gregory Porter - Day Dream
TTITLE6=Logan Richardson - Slow
TTITLE7=Julia Kadel Trio - Herbstwoche
TTITLE8=Kendrick Scott Oracle - Lotus
TTITLE9=John Scofield - Jolene
TTITLE10=Madeleine Peyroux - The Highway Kind
TTITLE11=Jacky Terrasson and Stephane Belmondo - Hand In Hand
TTITLE12=Stefano Bollani - Quel Che Si Diventa
TTITLE13=Ibrahim Maalouf - Overture II - Alf Leila Wa Leila
TTITLE14=Snarky Puppy - The Simple Life
TTITLE15=Yuna - Unrequited Love
EXTD=YEAR: 2016
EXTT0=
EXTT1=
EXTT2=
EXTT3=
EXTT4=
EXTT5=
EXTT6=
EXTT7=
EXTT8=
EXTT9=
EXTT10=
EXTT11=
EXTT12=
EXTT13=
EXTT14=
EXTT15=
PLAYORDER=
